<svg width="24" height="24" viewBox="0 0 24 24" fill="none" xmlns="http://www.w3.org/2000/svg">
<path d="M19.5145 7.17242H17.8032L13.6046 11.3692C13.7492 11.7377 13.7625 12.1448 13.6423 12.522C13.522 12.8992 13.2756 13.2235 12.9443 13.4404C12.6131 13.6572 12.2173 13.7534 11.8235 13.7127C11.4297 13.6721 11.0619 13.4971 10.7819 13.2171C10.502 12.9372 10.327 12.5694 10.2863 12.1756C10.2457 11.7818 10.3419 11.386 10.5587 11.0548C10.7756 10.7235 11.0999 10.4771 11.4771 10.3568C11.8542 10.2366 12.2613 10.2499 12.6299 10.3945L16.8276 6.19679V4.48552C16.8277 4.25654 16.9186 4.03694 17.0805 3.87495L18.6713 2.28414C18.7007 2.25451 18.7377 2.23346 18.7782 2.22326C18.8187 2.21305 18.8612 2.21407 18.9011 2.22621C18.983 2.25012 19.0437 2.31817 19.0602 2.40184L19.4832 4.51771L21.5982 4.94069C21.6809 4.95725 21.749 5.01793 21.7729 5.09977C21.7849 5.13953 21.786 5.18181 21.776 5.22213C21.7659 5.26245 21.7452 5.29929 21.7159 5.32874L20.1241 6.91954C19.9624 7.08116 19.7432 7.17209 19.5145 7.17242Z" fill="#FF0000"/>
<path d="M3.37931 12C3.37931 14.2864 4.28756 16.4791 5.90425 18.0957C7.52094 19.7124 9.71365 20.6207 12 20.6207C13.1321 20.6207 14.2531 20.3977 15.299 19.9645C16.3449 19.5312 17.2952 18.8963 18.0957 18.0957C18.8963 17.2952 19.5312 16.3449 19.9645 15.299C20.3977 14.2531 20.6207 13.1321 20.6207 12C20.6207 11.1743 20.5048 10.3761 20.2887 9.62115C20.2458 9.44781 20.2717 9.26457 20.3612 9.10998C20.4506 8.95539 20.5965 8.84151 20.7681 8.79231C20.9398 8.74311 21.1239 8.76242 21.2816 8.84617C21.4393 8.92993 21.5584 9.0716 21.6138 9.24138C21.8657 10.1186 22 11.0437 22 12C22 17.5228 17.5228 22 12 22C6.47724 22 2 17.5228 2 12C2 6.47725 6.47724 2 12 2C12.9333 1.99909 13.8611 2.12874 14.7586 2.38529C14.8461 2.40984 14.9279 2.45144 14.9993 2.5077C15.0707 2.56396 15.1302 2.63378 15.1745 2.71313C15.2188 2.79249 15.247 2.87982 15.2574 2.9701C15.2679 3.06038 15.2604 3.15183 15.2354 3.2392C15.2103 3.32658 15.1683 3.40814 15.1116 3.4792C15.055 3.55027 14.9848 3.60944 14.9052 3.65331C14.8257 3.69718 14.7382 3.72488 14.6478 3.73483C14.5575 3.74478 14.4661 3.73677 14.3788 3.71127C13.6052 3.49045 12.8045 3.37872 12 3.37931C9.71365 3.37931 7.52094 4.28756 5.90425 5.90426C4.28756 7.52095 3.37931 9.71365 3.37931 12Z" fill="#FF0000"/>
<path d="M7.51724 12C7.51981 12.609 7.64648 13.2112 7.88951 13.7696C8.13255 14.328 8.48686 14.8311 8.9308 15.248C9.37475 15.665 9.89901 15.9871 10.4716 16.1946C11.0442 16.4022 11.653 16.4909 12.261 16.4553C12.869 16.4197 13.4634 16.2605 14.0078 15.9876C14.5523 15.7146 15.0354 15.3335 15.4276 14.8676C15.8199 14.4017 16.113 13.8607 16.2892 13.2777C16.4654 12.6947 16.5209 12.082 16.4524 11.4768C16.4331 11.3542 16.4473 11.2287 16.4935 11.1136C16.5397 10.9984 16.6162 10.8979 16.7149 10.8227C16.8136 10.7475 16.9308 10.7004 17.0541 10.6863C17.1773 10.6723 17.3021 10.6919 17.4152 10.743C17.646 10.846 17.8014 11.0658 17.8216 11.3177C17.9644 12.5271 17.7268 13.751 17.142 14.8192C16.5571 15.8874 15.654 16.7468 14.5581 17.278C13.4623 17.8093 12.2282 17.9859 11.0273 17.7834C9.82644 17.5809 8.71849 17.0093 7.85747 16.148C6.99669 15.2877 6.42494 14.1809 6.22154 12.981C6.01814 11.7812 6.19316 10.5477 6.72232 9.45181C7.25148 8.35589 8.10857 7.45179 9.1747 6.86491C10.2408 6.27803 11.4632 6.03746 12.6722 6.17656C12.7636 6.18504 12.8524 6.21168 12.9333 6.25491C13.0143 6.29815 13.0858 6.35712 13.1437 6.42836C13.2016 6.4996 13.2447 6.58167 13.2704 6.66978C13.2962 6.75788 13.3041 6.85024 13.2937 6.94144C13.2833 7.03264 13.2548 7.12084 13.2098 7.20088C13.1649 7.28092 13.1044 7.35118 13.032 7.40755C12.9595 7.46392 12.8766 7.50526 12.788 7.52915C12.6993 7.55304 12.6068 7.559 12.5159 7.54667C11.8878 7.47406 11.2516 7.53509 10.6488 7.72574C10.046 7.91639 9.49038 8.23236 9.01834 8.6529C8.5463 9.07345 8.16853 9.58907 7.90983 10.1659C7.65113 10.7428 7.51734 11.3678 7.51724 12Z" fill="#FF0000"/>
</svg>
