<svg width="24" height="24" viewBox="0 0 24 24" fill="none" xmlns="http://www.w3.org/2000/svg">
<path d="M7.1883 12C7.1883 11.2659 7.23085 10.4833 7.31551 9.69231H3.86098C3.6485 10.4417 3.53846 11.2179 3.53846 12C3.53846 12.7821 3.6485 13.5583 3.86098 14.3077H7.31551C7.23085 13.5167 7.1883 12.7341 7.1883 12ZM9.10136 15.8462C9.24085 16.5467 9.41996 17.2201 9.64022 17.8293C9.94986 18.6857 10.3239 19.3667 10.741 19.8215C11.1474 20.2646 11.5609 20.4615 12 20.4615C12.4391 20.4615 12.8526 20.2646 13.259 19.8215C13.6761 19.3667 14.0501 18.6857 14.3598 17.8293C14.58 17.2201 14.7592 16.5467 14.8986 15.8462H9.10136ZM4.46595 15.8462C4.86804 16.6338 5.38915 17.3563 6.01643 17.9836C6.80214 18.7693 7.73524 19.3923 8.76182 19.8175C8.8034 19.8347 8.8462 19.849 8.88802 19.8656C8.61804 19.4014 8.38759 18.8887 8.19391 18.3532C7.91333 17.5772 7.69588 16.7224 7.53586 15.8462H4.46595ZM16.4641 15.8462C16.3041 16.7224 16.0867 17.5772 15.8061 18.3532C15.6124 18.8889 15.3811 19.4013 15.111 19.8656C15.1531 19.8489 15.1963 19.8349 15.2382 19.8175C16.2648 19.3923 17.1979 18.7693 17.9836 17.9836C18.6108 17.3563 19.132 16.6338 19.5341 15.8462H16.4641ZM15.111 4.13341C15.3813 4.59792 15.6122 5.1108 15.8061 5.64684C16.0867 6.42284 16.3041 7.27756 16.4641 8.15385H19.5341C19.132 7.36621 18.6108 6.6437 17.9836 6.01643C17.1979 5.23071 16.2648 4.60772 15.2382 4.18249C15.1962 4.1651 15.1532 4.15011 15.111 4.13341ZM12 3.53846C11.5609 3.53846 11.1474 3.73537 10.741 4.17849C10.3239 4.63328 9.94986 5.31432 9.64022 6.17067C9.41996 6.77992 9.24085 7.45327 9.10136 8.15385H14.8986C14.7592 7.45327 14.58 6.77992 14.3598 6.17067C14.0501 5.31432 13.6761 4.63328 13.259 4.17849C12.8526 3.73537 12.4391 3.53846 12 3.53846ZM8.76182 4.18249C7.73524 4.60772 6.80214 5.23071 6.01643 6.01643C5.38916 6.6437 4.86804 7.36621 4.46595 8.15385H7.53586C7.69588 7.27756 7.91333 6.42284 8.19391 5.64684C8.38769 5.11097 8.61785 4.5978 8.88802 4.13341C8.84608 4.15 8.80352 4.16522 8.76182 4.18249ZM8.72676 12C8.72676 12.7387 8.77267 13.5236 8.86298 14.3077H15.137C15.2273 13.5236 15.2732 12.7387 15.2732 12C15.2732 11.2613 15.2273 10.4764 15.137 9.69231H8.86298C8.77267 10.4764 8.72676 11.2613 8.72676 12ZM16.8117 12C16.8117 12.7341 16.7692 13.5167 16.6845 14.3077H20.139C20.3515 13.5583 20.4615 12.7821 20.4615 12C20.4615 11.2179 20.3515 10.4417 20.139 9.69231H16.6845C16.7692 10.4833 16.8117 11.2659 16.8117 12ZM22 12C22 13.0799 21.8218 14.1499 21.4802 15.1711C21.4671 15.2778 21.4302 15.3759 21.378 15.4645C21.3332 15.5858 21.2883 15.7075 21.2388 15.8271C20.7362 17.0403 19.9998 18.1428 19.0713 19.0713C18.1428 19.9998 17.0403 20.7362 15.8271 21.2388C14.6139 21.7413 13.3132 22 12 22L11.5082 21.988C10.363 21.9316 9.23445 21.6785 8.17288 21.2388C6.95972 20.7362 5.85721 19.9998 4.92869 19.0713C4.00016 18.1428 3.26376 17.0403 2.76122 15.8271C2.71166 15.7075 2.6668 15.5858 2.622 15.4645C2.56985 15.3759 2.53288 15.2778 2.51983 15.1711C2.17825 14.1499 2 13.0799 2 12C2 10.9198 2.17805 9.84938 2.51983 8.82793C2.53301 8.72128 2.56977 8.62297 2.622 8.53446C2.6667 8.41348 2.71178 8.29224 2.76122 8.17288C3.26376 6.95972 4.00016 5.85721 4.92869 4.92869C5.85721 4.00016 6.95972 3.26376 8.17288 2.76122C9.38613 2.25867 10.6868 2 12 2L12.4918 2.01202C13.637 2.06841 14.7655 2.3215 15.8271 2.76122C17.0403 3.26376 18.1428 4.00016 19.0713 4.92869C19.9998 5.85721 20.7362 6.95972 21.2388 8.17288C21.2882 8.29224 21.3333 8.41348 21.378 8.53446C21.4302 8.62297 21.467 8.72128 21.4802 8.82793C21.8219 9.84938 22 10.9198 22 12Z" fill="#FF0000"/>
</svg>
